<?xml version="1.0" standalone="no"?><!DOCTYPE svg PUBLIC "-//W3C//DTD SVG 1.1//EN" "http://www.w3.org/Graphics/SVG/1.1/DTD/svg11.dtd"><svg class="icon" width="200px" height="200.00px" viewBox="0 0 1024 1024" version="1.1" xmlns="http://www.w3.org/2000/svg"><path fill="#ffffff" d="M545.640296 238.933333v68.266667H1024V238.933333H545.640296z m0 785.066667h172.373334v-341.333333h136.988444v341.333333H1024V341.333333H545.640296v682.666667zM0 1024h511.469037V0H0v1024z m438.385778-247.466667H292.257185v-136.533333h146.128593v136.533333z m-148.48-682.666666h146.128592v136.533333H289.905778v-136.533333z m0 273.066666h146.128592v136.533334H289.905778v-136.533334z m-219.211852-273.066666h146.166518v136.533333H70.731852v-136.533333z m0 273.066666h146.166518v136.533334H70.731852v-136.533334z m0 273.066667h146.166518v136.533333H70.731852v-136.533333z"  /></svg>