<?xml version="1.0" standalone="no"?><!DOCTYPE svg PUBLIC "-//W3C//DTD SVG 1.1//EN" "http://www.w3.org/Graphics/SVG/1.1/DTD/svg11.dtd"><svg class="icon" width="200px" height="200.00px" viewBox="0 0 1024 1024" version="1.1" xmlns="http://www.w3.org/2000/svg"><path fill="#707070" d="M0.479571 0l0 1024 1023.040858 0L1023.520429 0 0.479571 0zM977.301349 977.78092 44.922463 977.78092 44.922463 42.666704l932.378887 0L977.301349 977.78092zM303.792117 828.834222 240.06515 764.835499 792.365527 764.835499 728.63856 828.834222 792.366415 828.834222 877.334816 743.502591 877.334816 743.500815 792.366415 658.168296 728.63856 658.168296 792.367303 722.168795 240.063374 722.168795 303.792117 658.168296 240.064262 658.168296 155.097637 743.500815 155.097637 743.502591 240.064262 828.834222ZM490.322068 534.863538l-63.887712 0L426.434356 189.714656l-38.448257 0c-1.904962 25.633947 1.4396 63.00317-57.672829 63.00317l0 38.446481 57.672829 0L387.986099 534.863538l-63.889488 0 0 38.442928 166.225456 0L490.322068 534.863538zM637.27233 322.763582c-8.528367 0-39.560151 0-57.660396 0L579.611934 227.592757l172.979412 0 0-38.426943-211.419676 0 0 172.022934c0 0 44.480192 0 76.878752 0 125.918418 0 132.82335 172.912805 0 172.912805-18.407526 0-76.878752 0-76.878752 0l0 38.426943c0 0 81.90714 0 96.101548 0C794.659474 572.527608 786.017431 322.763582 637.27233 322.763582z" /></svg>