<?xml version="1.0" standalone="no"?><!DOCTYPE svg PUBLIC "-//W3C//DTD SVG 1.1//EN" "http://www.w3.org/Graphics/SVG/1.1/DTD/svg11.dtd"><svg class="icon" width="200px" height="200.00px" viewBox="0 0 1024 1024" version="1.1" xmlns="http://www.w3.org/2000/svg"><path fill="#707070" d="M249.344 385.44384c-49.5104 0-89.8048 40.28416-89.8048 89.8048 0 49.52064 40.28416 89.8048 89.8048 89.8048s89.8048-40.28416 89.8048-89.8048c-0.01024-49.52064-40.2944-89.8048-89.8048-89.8048z m0 138.63936c-26.9312 0-48.8448-21.9136-48.8448-48.8448s21.9136-48.8448 48.8448-48.8448 48.8448 21.9136 48.8448 48.8448-21.9136 48.8448-48.8448 48.8448zM512.38912 385.44384c-49.5104 0-89.8048 40.28416-89.8048 89.8048 0 49.52064 40.28416 89.8048 89.8048 89.8048 49.52064 0 89.8048-40.28416 89.8048-89.8048-0.01024-49.52064-40.28416-89.8048-89.8048-89.8048z m0 138.63936c-26.9312 0-48.8448-21.9136-48.8448-48.8448s21.9136-48.8448 48.8448-48.8448 48.8448 21.9136 48.8448 48.8448-21.9136 48.8448-48.8448 48.8448zM775.424 385.44384c-49.52064 0-89.8048 40.28416-89.8048 89.8048 0 49.52064 40.28416 89.8048 89.8048 89.8048s89.8048-40.28416 89.8048-89.8048c0-49.52064-40.28416-89.8048-89.8048-89.8048z m0 138.63936c-26.9312 0-48.8448-21.9136-48.8448-48.8448s21.9136-48.8448 48.8448-48.8448 48.8448 21.9136 48.8448 48.8448-21.9136 48.8448-48.8448 48.8448z"  /><path fill="#707070" d="M901.89824 89.6H122.88c-67.75808 0-122.88 55.12192-122.88 122.88v552.97024c0 67.75808 55.12192 122.88 122.88 122.88h274.51392l71.54688 71.53664a61.00992 61.00992 0 0 0 43.44832 18.00192 60.98944 60.98944 0 0 0 43.43808-18.00192l71.54688-71.53664H901.89824c67.75808 0 122.88-55.12192 122.88-122.88V212.48c0-67.75808-55.12192-122.88-122.88-122.88z m81.92 675.85024c0 45.16864-36.75136 81.92-81.92 81.92H610.41664l-83.5584 83.53792c-7.72096 7.74144-21.21728 7.74144-28.95872 0l-83.53792-83.53792H122.88c-45.16864 0-81.92-36.75136-81.92-81.92V212.48c0-45.16864 36.75136-81.92 81.92-81.92H901.89824c45.16864 0 81.92 36.75136 81.92 81.92v552.97024z"  /></svg>