<?xml version="1.0" standalone="no"?><!DOCTYPE svg PUBLIC "-//W3C//DTD SVG 1.1//EN" "http://www.w3.org/Graphics/SVG/1.1/DTD/svg11.dtd"><svg class="icon" width="200px" height="200.00px" viewBox="0 0 1024 1024" version="1.1" xmlns="http://www.w3.org/2000/svg"><path fill="#707070" d="M711.212646 504.427534c-32.422434-6.349615-16.673751-23.904433-16.673751-23.904433s31.720446-52.641941-6.282077-90.915639c-47.084365-47.40159-161.495114 6.03239-161.495114 6.03239-43.696198 13.645788-32.127721-6.236028-25.937742-40.080857 0-39.877219-13.556761-107.364263-129.980353-67.509557-116.288516 40.080857-216.151945 180.498934-216.151945 180.498934-69.451792 93.312222-60.233849 165.429727-60.233849 165.429727 17.32969 159.202908 185.311543 202.899106 315.990814 213.246779 137.457652 10.891048 322.995345-47.716768 379.252627-168.037111C845.959559 558.650483 743.747643 510.956228 711.212646 504.427534zM420.616198 802.354947c-136.462998 6.417153-246.787686-62.49331-246.787686-154.212244 0-91.795683 110.323665-165.42768 246.787686-171.753759 136.554072-6.326079 247.104911 50.314942 247.104911 141.954059C667.721109 710.038402 557.170271 796.119943 420.616198 802.354947zM393.414673 536.847921C256.137123 553.026392 271.997346 682.486906 271.997346 682.486906s-1.400906 41.017182 36.804231 61.893652c80.319304 43.786249 163.010631 17.261129 204.809619-37.053917C555.409161 652.978848 530.872325 520.78406 393.414673 536.847921zM358.778828 718.577892c-25.644053 3.027963-46.27186-11.882632-46.27186-33.44881 0-21.509896 18.322297-44.0124 43.988864-46.701648 29.416983-2.824325 48.576345 14.256702 48.576345 35.834136C405.0732 695.771467 384.309294 715.642027 358.778828 718.577892zM439.685509 649.160893c-8.676613 6.529717-19.361977 5.625114-23.948435-2.214435-4.79112-7.636934-2.982938-19.881816 5.782703-26.321482 10.190083-7.614421 20.763906-5.423523 25.350364 2.213411C451.4566 630.67896 448.180997 642.426515 439.685509 649.160893zM778.04375 448.372867c11.070126 0 20.470217-8.246825 22.051225-19.001773 0.181125-0.791016 0.292666-1.490957 0.292666-2.394537 16.764825-151.781892-123.494639-125.664048-123.494639-125.664048-12.449543 0-22.437012 10.144034-22.437012 22.797215 0 12.472056 9.987468 22.61609 22.437012 22.61609 100.743472-22.412452 78.512145 79.031984 78.512145 79.031984C755.405147 438.318884 765.572718 448.372867 778.04375 448.372867zM761.686201 183.465498c-48.485271-11.432377-98.371448-1.582031-112.334461 1.107217-1.084705 0.112564-2.077312 1.12973-3.072989 1.333368-0.496304 0.090051-0.813528 0.60989-0.813528 0.60989-13.758352 3.90903-23.835871 16.763802-23.835871 31.924083 0 18.09717 14.572904 32.963763 32.716122 32.963763 0 0 17.645892-2.39556 29.619598-7.094582 11.884678-4.812609 112.333438-3.591805 162.220638 80.771605 27.201525 61.567217 11.973706 102.776781 10.05296 109.397572 0 0-6.483668 15.995299-6.483668 31.765471 0 18.164708 14.59644 29.597085 32.624025 29.597085 15.071254 0 27.744901-2.078335 31.451316-27.743878l0.180102 0C967.580524 288.321638 848.467683 203.843618 761.686201 183.465498z" /></svg>